<?xml version="1.0" standalone="no"?><!DOCTYPE svg PUBLIC "-//W3C//DTD SVG 1.1//EN" "http://www.w3.org/Graphics/SVG/1.1/DTD/svg11.dtd"><svg t="1588450812890" class="icon" viewBox="0 0 1024 1024" version="1.1" xmlns="http://www.w3.org/2000/svg" p-id="11188" xmlns:xlink="http://www.w3.org/1999/xlink" width="200" height="200"><defs><style type="text/css"></style></defs><path d="M330.9 412.3v443.9h443.7c27.9 0 52.5-18.3 60.5-45.1l95-317.5c12.1-40.5-18.2-81.3-60.5-81.3h-233c-22.4 0-38.3-21.6-31.8-43.1 24.3-79.7 60.2-246-47.1-287.4 0 0-36.9-23.1-60.1 10.6-7.7 11.2-10.8 24.9-10.4 38.5 1.5 48.9-4.6 218-156.3 281.4z" fill="#F9E48A" p-id="11189"></path><path d="M795.8 811.1l95-317.5c12.1-40.5-18.2-81.3-60.5-81.3h-233c-22.4 0-38.3-21.6-31.8-43.1 24.3-79.7 60.2-246-47.1-287.4 0 0-2.3-1.5-6.2-3.1-5.1 2.8-10.1 7.2-14.6 13.7-7.7 11.2-10.8 24.9-10.4 38.5 1.5 48.9-4.6 218-156.3 281.4v443.9h404.4c27.9 0 52.5-18.4 60.5-45.1z" fill="#FECE0A" p-id="11190"></path><path d="M338.3 941.8H96.6c-2.9 0-5.3-2.4-5.3-5.3V257.3c0-2.9 2.4-5.3 5.3-5.3h241.7c2.9 0 5.3 2.4 5.3 5.3v679.2c-0.1 2.9-2.4 5.3-5.3 5.3z" fill="#39AFDA" p-id="11191"></path><path d="M145.6 252.1c-30 0-54.3 24.3-54.3 54.3v581.2c0 2.3 0.2 4.6 0.5 6.8 0.6 0 1.2 0.1 1.8 0.1h143.7c30 0 54.3-24.3 54.3-54.3V259c0-2.3-0.2-4.6-0.5-6.8-0.6 0-1.2-0.1-1.8-0.1H145.6z" fill="#9CE4F3" p-id="11192"></path><path d="M182.3 286.5c-30 0-54.3 24.3-54.3 54.3v553.7h109.3c30 0 54.3-24.3 54.3-54.3V286.5H182.3z" fill="#52C5F8" p-id="11193"></path><path d="M217.4 770m-45.9 0a45.9 45.9 0 1 0 91.8 0 45.9 45.9 0 1 0-91.8 0Z" fill="#FE6A19" p-id="11194"></path><path d="M258.1 766.5c0-13.7-6.1-25.9-15.7-34.3-6-2.9-12.7-4.7-19.9-4.7-25.3 0-45.9 20.5-45.9 45.9 0 13.7 6.1 25.9 15.7 34.3 6 2.9 12.7 4.7 19.9 4.7 25.4 0 45.9-20.5 45.9-45.9z" fill="#FC8308" p-id="11195"></path><path d="M176.7 773.4c0-25.3 20.5-45.9 45.9-45.9 6 0 11.7 1.3 17 3.5-0.7-0.8-1.5-1.5-2.3-2.2-6-2.9-12.7-4.7-19.9-4.7-25.3 0-45.9 20.5-45.9 45.9 0 13.7 6.1 25.9 15.7 34.3 0.9 0.5 1.9 0.8 2.9 1.2-8.2-8.3-13.4-19.5-13.4-32.1z" fill="#FF9843" p-id="11196"></path></svg>